<?xml version="1.0" encoding="utf-8"?>
<!-- Generator: Adobe Illustrator 23.0.5, SVG Export Plug-In . SVG Version: 6.00 Build 0)  -->
<svg version="1.1" id="Layer_1" xmlns="http://www.w3.org/2000/svg" xmlns:xlink="http://www.w3.org/1999/xlink" x="0px" y="0px"
	 viewBox="0 0 258.8 356.7" style="enable-background:new 0 0 258.8 356.7;" xml:space="preserve">
<style type="text/css">
	.st0{fill:#999898;}
	.st1{fill:#4E4E4E;}
	.st2{fill:#C8C8C8;}
	.st3{fill:#E98037;}
	.st4{fill:#082459;}
	.st5{fill:#FCBD6B;}
	.st6{fill:#120C0C;}
	.st7{fill:#375A9F;}
	.st8{fill:#050505;}
	.st9{fill:#F80706;}
	.st10{fill:#89BE4F;}
</style>
<title>avas_Logo</title>
<g>
	<path class="st0" d="M226,291.7l16.5-0.8c0,0.3,0,0.5,0,0.8l-6.9,0.7c-1.2-0.2-2.4-0.1-3.5,0.3l-3.9,0.3c-0.7-0.2-1.4-0.1-2.1,0.3
		l-4,0.2c-1.2-0.2-2.4-0.1-3.5,0.3l-4,0.3c-1-0.2-2.1-0.2-3,0.2c-1.5-0.1-3,0.1-4.4,0.4c-0.4-0.4-1-0.3-1.4,0.1
		c-0.1,0.1-0.2,0.3-0.2,0.4c-1.5,0-3-0.2-4.5-0.1s-2.7,0-2.1,2.6c3.5,13.8,6.7,27.6,10,41.5c1.4,5.8,2.6,11.5,4,17.6
		c-2.6,0-5.1,0-7.7,0c-1.5,0-1.4-1.2-1.6-2c-1-4-2.1-7.9-2.8-11.9c-2.7-14.7-7.2-29-10.2-43.6c-0.2-1,0.3-3.2-2-3.2
		c-0.7-0.2-1.4-0.2-2.1,0.1l-3.5,0.2c-1.2-0.2-2.4,0-3.5,0.3l-4,0.3c-0.7-0.2-1.4-0.1-2.1,0.2l-3.9,0.2c-1.2-0.2-2.4-0.1-3.5,0.3
		c-1.5,0.1-3.1-0.2-4.5,0.5c-1-0.7-1.7,0-2.5,0.5c-7,0.5-14,0.3-20.9,1.2c-1.2-0.2-2.4-0.1-3.5,0.3l-3.9,0.3
		c-0.9-0.2-1.8-0.1-2.6,0.3l-3.5,0.2c-1.2-0.2-2.4-0.1-3.5,0.3l-3.9,0.3c-1.2-0.3-2.4-0.2-3.5,0.3c-1.3-0.1-2.7,0-3.9,0.4
		c-0.9-0.6-1.5,0-2.1,0.5c-5.5,0-11,0.3-16.4,0.9c-0.5-0.2-1.1-0.2-1.6,0.1l-3.9,0.2c-1.2-0.2-2.4,0-3.6,0.3l-3.4,0.2
		c-0.9-0.2-1.8-0.1-2.5,0.3l-3.9,0.2c-1.2-0.2-2.4-0.1-3.6,0.3c-1.5,0.1-3-0.2-4.5,0.4c-1-0.7-1.7,0-2.5,0.5c-7,0.5-14,0.3-20.9,1.2
		c-1.2-0.2-2.4,0-3.5,0.3l-3.9,0.2c-0.7-0.2-1.4-0.1-2.1,0.3l-3.9,0.2c-1.2-0.2-2.4-0.1-3.5,0.3l-3.9,0.3c-1-0.2-2.1-0.2-3.1,0.2
		c-1.5-0.1-3,0.1-4.4,0.4c-0.4-0.4-1-0.4-1.4,0c-0.1,0.1-0.2,0.3-0.2,0.4C9,310,7.5,309.9,6,310.1c-2.9,0.6-4-0.6-3.7-3.4l0.4-1.5
		c4.3,0.1,8.5-0.5,12.8-0.8c1.5,0.2,3.1,0.1,4.6-0.3l4.4-0.2c1,0.2,2.1,0.1,3.1-0.3l4.5-0.2c1.5,0.2,3.1,0.1,4.5-0.3l4.9-0.3
		c1.5,0.2,3.1,0.1,4.6-0.3l4.9-0.3c0.8,0.3,1.8,0.2,2.6-0.2l7-0.4c0.6,0.2,1.4,0.2,2-0.1c17.3-1,34.5-2.1,51.8-3.1
		c24.2-1.5,48.3-2.9,72.5-4.4c1.6-0.1,2.6,0,2-2.3c-2-7.6-3.7-15.4-5.5-23.1c-2.1-8.9-4.3-17.7-6.3-26.6c-0.7-3.2-1-3.4-4.3-2.6
		c-4.8,1.2-9.7,1.9-14.7,2.2c-4,0-8-0.3-11.9-1.1c-8.3-1.3-15.5-5.4-22.8-9.3c-8-4.3-13.7-11.3-19.2-18.4c-4-5.3-7.1-11.3-9-17.8
		c-1.7,1.3-0.9,3.1-1.5,4.5c-0.5,1.5-0.9,3.1-1.1,4.8c-1.2,6.3-2.3,12.7-3.5,19c-1.4,7.5-2.9,15-4.4,22.5
		c-1.9,9.7-3.9,19.5-5.8,29.2c-0.9,4.8-1.7,9.6-2.6,14.5c-0.1,0.7-0.3,1.5-0.6,2.1c-0.4,0.7-0.9,1.6-1.5,1.8c-1.2,0.3-0.6-1.1-1-1.6
		c-1.5-1.8-2.8-3.8-4.2-5.6c-2.9-3.7-5.8-7.3-8.6-10.9c-4.4-5.6-8.6-11.3-13-16.9c-1-1.2-2.2-2.2-3.2-3.4
		c-3.6-4.5-7.1-9.2-10.7-13.7c-0.5-0.6-0.6-1.2-0.1-1.7c0.6-0.6,1.6-0.7,2.3,0c1.9,1.4,3.8,2.8,5.6,4.3c7.6,5.9,15.3,11.8,22.9,17.7
		c2.1,1.6,2.1,1.4,2.9-1.2c2.7-9.1,4.5-18.3,6.9-27.5c2.1-7.9,3.8-15.9,5.6-23.8c2-8.6,4-17.3,6-25.9c1.4-6.4,2.5-12.8,4-19.1
		c2-8.6,3.5-17.3,5.9-25.9c0.8-2.8,1.1-5.8,1.8-8.7c0.2-0.7,0-0.7-0.4-0.9c-3.5-2-7.1-3.9-10.4-6.3c-7.1-4.9-12.8-11.8-16.3-19.7
		c-3-6.8-3.9-14.1-3.5-21.6C67,72.4,71,65.6,76.6,59.5c3.5-3.8,8.3-5.7,12.9-7.7c1.3-0.6,2.9-0.2,4.4-0.3c0.6,0.2,1.1,0.3,1.6-0.3
		l2.4-0.3c0.4,0.1,0.8,0,1.1-0.2c3.9,0,7.9-0.5,11.7,0.2c3.3,0.6,3.8-0.2,4.5-3.2c1.2-5,2.1-10,3.3-14.9c1.9-7.8,3.7-15.6,5.4-23.4
		c0.6-2.5,0.9-5,1.6-7.5c0.3-1,0.6-1.8,1.5-1.8c0.9,0.1,1.7,0.9,1.8,1.8c0.7,3.1,1.5,6.2,2.2,9.3c1.5,6.5,3,13,4.5,19.4
		c2.5,10.3,5,20.6,7.5,30.9c3.1,13,6.3,26.1,9.4,39.1c1.9,8,3.7,16,5.5,24c0.5,2.1,0.9,4.1,1.3,6.2s3.6,4,6.4,4.4
		c6.6,1.1,13.1,3,18.3,7.1c6.1,4.9,11.1,11,14.6,18c2.3,4.6,4.7,9.2,5.6,14.4c0.8,5.4,1.3,10.8,1.3,16.2c0,8.3-2.3,16.2-5.2,23.9
		c-2.4,6.4-6.8,11.3-11.4,16.1c-1,1.3-2.2,2.4-3.6,3.3c-1.1,0.6-0.9,1.9-0.7,2.9c2,8.6,4,17.1,6.1,25.7c2.2,9,4.3,18.1,6.5,27.2
		c0.2,0.9,0.4,1.7,0.6,2.6c0.5,1.4,1.5,0.7,2.4,0.5l5-0.2c1.4,0.2,2.7,0.1,4-0.3l5-0.2c1,0.2,2,0.1,3-0.3l5-0.2
		C223.3,292.2,224.7,292.1,226,291.7z M152.1,138.7L152.1,138.7c-0.5-2.2-0.1-4.7-2.1-6.4c0.4-0.1,0.6-0.5,0.6-0.8
		c0-0.1,0-0.1-0.1-0.2c-1.7-7.2-3.5-14.4-5.3-21.5c-1.9-7.8-3.6-15.7-5.7-23.5c-1-3.7-1.3-7.6-3-11c-3.1-6.3-9.7-7.9-15.2-11
		c-0.6,2.8-1.2,5.3-1.8,7.7c-3,13.9-6,27.8-8.7,41.8c-0.5,2.7-3.4,6,0.8,8.5l-0.5,0c-1-0.1-1.7-0.1-2,1.2c-0.7,3.5-1.7,6.9-2.5,10.3
		v0.5c-0.1,0.2-0.2,0.5-0.3,0.7c-2,9.7-4,19.5-5.9,29.2c-0.7,3.5-2,7-1.6,10.4c0.6,5.6,2.1,11,4.6,16c3.4,7.3,7.9,14.1,13.3,20.2
		c2.7,3,5.2,6.5,9,8.1c9.6,4.1,19.1,8.9,29.8,9.8c5.4,0.4,10.8,0.2,16.1-0.7c1.1-0.2,1.9-0.6,1.6-2c-1.1-4.7-2.3-9.3-3.4-14
		c-3.1-12.8-6.2-25.6-9.3-38.5c-2.1-8.7-4.2-17.5-6.3-26.2c0.3-1.2-0.8-1.1-1.4-1.5c1.5-0.5,0.9-1.6,0.7-2.6
		c-0.3-1.4-0.6-2.8-0.9-4.2L152.1,138.7z M181,221.5c9.3-7,12.9-17,14.5-27.6c0.9-5.5,0.1-11.2-1.1-16.8c-1.4-6.6-4.7-12.1-8.6-17.5
		c-2.8-3.7-5.6-7.1-10.1-8.7c-2.9-1-5.8-2.1-8.7-3c-1.1-0.4-2.5-1.7-3.4-1s0.3,2.2,0.5,3.3c2.8,11.9,5.6,23.8,8.4,35.6
		c1.8,7.8,3.6,15.7,5.5,23.5C178.9,213.4,179.9,217.4,181,221.5z M100.6,116.2c0.3-1.7,0.6-3.1,0.9-4.4c3.6-16.3,7.1-32.7,10.8-49
		c0.2-1,0.2-1.1-0.7-1.5c-1.7-0.7-3.4-0.3-5.1-0.6c-5.5-1.1-10.8-0.9-15.6,2.5c-0.8,0.6-1.6,1.2-2.4,1.7c-5.8,3.7-9.6,9.9-10.3,16.7
		c-1.3,10.3,3.4,18.7,9.2,26.5C90.5,112.3,96.2,113,100.6,116.2L100.6,116.2z"/>
	<path class="st1" d="M242.5,291.6c0-0.3,0-0.5,0-0.8c4.9-0.9,9.9-0.5,14.8-1.1c0.5-0.1,1.5-0.5,1.5,0.6c0,0.6-0.6,0.9-1.3,0.9
		C252.5,290.9,247.5,292.2,242.5,291.6z"/>
	<path class="st2" d="M20,304.2c-1.5,0.4-3,0.5-4.6,0.3C16.9,303.2,18.4,303.7,20,304.2z"/>
	<path class="st2" d="M36.5,303.2c-1.5,0.4-3,0.5-4.5,0.3C33.4,302.3,34.9,302.6,36.5,303.2z"/>
	<path class="st2" d="M46,302.6c-1.5,0.4-3,0.5-4.6,0.3C42.9,301.8,44.4,302,46,302.6z"/>
	<path class="st2" d="M209,292.7c-1.3,0.4-2.7,0.5-4,0.3C206.2,291.8,207.6,292.1,209,292.7z"/>
	<path class="st2" d="M226,291.7c-1.3,0.4-2.7,0.5-4,0.3C223.1,291.1,224.7,291,226,291.7z"/>
	<path class="st2" d="M37,307.7c1.1-0.4,2.4-0.5,3.5-0.3C39.5,308.6,38.3,308.3,37,307.7z"/>
	<path class="st2" d="M23.5,308.7c1.1-0.5,2.4-0.6,3.5-0.3C26,309.6,24.8,309.3,23.5,308.7z"/>
	<path class="st2" d="M232,292.7c1.1-0.4,2.4-0.5,3.5-0.3C234.5,293.6,233.2,293.3,232,292.7z"/>
	<path class="st2" d="M218.5,293.7c1.1-0.4,2.4-0.6,3.5-0.3C221,294.6,219.8,294.3,218.5,293.7z"/>
	<path class="st2" d="M179.5,296.7c1.1-0.4,2.4-0.5,3.5-0.3C182,297.7,180.7,297.2,179.5,296.7z"/>
	<path class="st2" d="M166,297.8c1.1-0.4,2.4-0.5,3.5-0.3C168.5,298.6,167.3,298.3,166,297.8z"/>
	<path class="st2" d="M134.5,300.2c1.1-0.4,2.4-0.5,3.5-0.3C137,301.1,135.7,300.8,134.5,300.2z"/>
	<path class="st2" d="M121,301.2c1.1-0.5,2.4-0.6,3.5-0.3C123.5,302.1,122.3,301.8,121,301.2z"/>
	<path class="st2" d="M113.5,301.8c1.1-0.4,2.4-0.6,3.5-0.3C116.1,302.4,114.6,302.5,113.5,301.8z"/>
	<path class="st2" d="M82,304.2c1.1-0.4,2.4-0.5,3.6-0.3C84.5,305.1,83.3,304.8,82,304.2z"/>
	<path class="st2" d="M68.5,305.3c1.1-0.4,2.4-0.6,3.6-0.3C71,306,69.8,305.8,68.5,305.3z"/>
	<path class="st2" d="M217,292.2c-1,0.4-2,0.5-3,0.3C214.9,291.3,215.9,291.6,217,292.2z"/>
	<path class="st2" d="M211.5,294.2c1-0.4,2-0.5,3-0.2C213.8,294.9,212.4,295,211.5,294.2z"/>
	<path class="st2" d="M27.5,303.7c-1,0.4-2,0.5-3.1,0.3C25.4,302.8,26.4,303.1,27.5,303.7z"/>
	<path class="st2" d="M16.5,309.2c1-0.4,2-0.5,3.1-0.2C18.8,309.9,17.4,310,16.5,309.2z"/>
	<path class="st2" d="M159,298.7c0.8-0.4,1.5-1.1,2.5-0.5C160.8,299.2,159.9,298.8,159,298.7z"/>
	<path class="st2" d="M128,300.7c0.8-0.4,1.7-0.5,2.6-0.3C129.8,301.5,128.9,301.3,128,300.7z"/>
	<path class="st2" d="M53.5,302.1c-0.8,0.4-1.7,0.5-2.6,0.2C51.6,301.6,52.7,301.5,53.5,302.1C53.5,302.1,53.5,302.1,53.5,302.1z"/>
	<path class="st2" d="M76,304.7c0.8-0.4,1.7-0.5,2.6-0.3C77.8,305.5,76.9,305.3,76,304.7z"/>
	<path class="st2" d="M61.5,306.2c0.8-0.4,1.5-1.1,2.5-0.5C63.3,306.7,62.4,306.3,61.5,306.2z"/>
	<path class="st2" d="M200,293.2c-0.9,0.1-1.9,0.8-2.4-0.5C198.4,292.9,199.3,292.5,200,293.2z"/>
	<path class="st2" d="M226,293.2c0.6-0.4,1.4-0.5,2.1-0.3C227.5,293.9,226.8,293.8,226,293.2z"/>
	<path class="st2" d="M62.5,301.7c-0.6,0.3-1.4,0.3-2,0.1c0.4-0.6,1.2-0.7,1.8-0.3C62.4,301.6,62.4,301.6,62.5,301.7z"/>
	<path class="st2" d="M107.5,302.7c0.6-0.5,1.2-1.1,2.1-0.5C109.1,303.3,108.2,302.7,107.5,302.7z"/>
	<path class="st2" d="M186.5,296.2c0.6-0.3,1.4-0.4,2.1-0.1c-0.4,0.6-1.2,0.8-1.9,0.3C186.6,296.3,186.6,296.3,186.5,296.2z"/>
	<path class="st2" d="M31,308.2c0.6-0.4,1.4-0.5,2.1-0.3C32.5,308.9,31.8,308.8,31,308.2z"/>
	<path class="st2" d="M173.5,297.2c0.6-0.4,1.4-0.4,2.1-0.2C175,297.9,174.3,297.8,173.5,297.2z"/>
	<path class="st2" d="M95.5,51.2c-0.4,0.6-1,0.4-1.6,0.3C94.3,50.6,94.9,50.6,95.5,51.2z"/>
	<path class="st2" d="M205.4,295.1c0.1-0.5,0.7-0.9,1.2-0.7c0.2,0,0.3,0.1,0.4,0.2C206.8,295.7,206.1,295.3,205.4,295.1z"/>
	<path class="st2" d="M89.5,303.7c0.5-0.3,1.1-0.3,1.6-0.1C90.6,304.3,90.1,304.3,89.5,303.7z"/>
	<path class="st2" d="M10.4,310.1c0.1-0.5,0.7-0.9,1.2-0.7c0.2,0,0.3,0.1,0.4,0.2C11.8,310.7,11.1,310.3,10.4,310.1z"/>
	<path class="st2" d="M99,50.7C98.7,51,98.3,51.1,98,51C98.2,50.3,98.5,50,99,50.7z"/>
	<path class="st3" d="M152.4,139.1c0.3,1.4,0.6,2.8,0.9,4.2c0.2,1,0.8,2.1-0.7,2.6c-0.5,0.6-1.1,0.4-1.8,0.2c-2-0.6-4-1.3-5.9-1.8
		c-3.6-1-6.6-3.1-10-4.3c1-3.3,1.7-6.7,3.2-9.8c0.6,0.9,1.2,1.8,1.8,2.7c0.7,1.1,1.3,2.8,2.3,3.1c3.2,1.2,6.4,2.6,10,2.7l0,0
		C152.2,138.8,152.3,139,152.4,139.1z"/>
	<path class="st4" d="M106.5,133.7c0.8-3.4,1.8-6.8,2.5-10.3c0.3-1.3,1-1.3,2-1.2c-0.4,1.9,2.3,6.3,4.3,6.9c1.5,0.7,3.3,0.5,4.6-0.5
		c1.3-0.9,2.7-1.8,4.2-2.6c-0.7,3.7-1.8,7.3-3.4,10.7c-0.7-0.1-1.5-0.2-2.2-0.3c-3.3-0.7-6.5-1.9-9.9-2.3c-0.5-0.6-1.1-0.3-1.6-0.1
		L106.5,133.7z"/>
	<path class="st5" d="M152,138.7c-3.5-0.1-6.8-1.5-10-2.7c-1-0.4-1.5-2-2.3-3.1c-0.6-0.9-1.2-1.8-1.8-2.7l-0.6-0.9l12.4,3
		C151.9,133.9,151.5,136.4,152,138.7z"/>
	<path class="st6" d="M108.7,134.1c3.4,0.4,6.6,1.6,9.9,2.3c0.7,0.1,1.5,0.2,2.2,0.3c1.1,2.6,3.8,3.1,6.9,1.4
		c2.4,0.8,4.6,1.9,7.2,1.8c3.4,1.2,6.4,3.3,10,4.3c2,0.5,4,1.2,5.9,1.8c0.7,0.2,1.3,0.4,1.8-0.2c0.6,0.4,1.7,0.3,1.4,1.5
		c-0.3-0.4-0.7-0.7-1.2-0.8c-9.4-3-19-5.6-28.6-8c-5.6-1.4-11.1-2.7-16.6-4.4L108.7,134.1z"/>
	<path class="st7" d="M124.2,126c-1.5,0.8-2.9,1.6-4.2,2.6c-1.3,1-3.1,1.2-4.6,0.5c-2-0.6-4.7-5-4.3-6.9l0.5,0l11.1,3.1
		C122.9,125.8,123.6,125.7,124.2,126L124.2,126z"/>
	<path class="st6" d="M106.5,133.7l0.5,0.3v0.1l-0.5,0.2L106.5,133.7z"/>
	<path class="st5" d="M152.4,139.1c-0.1-0.1-0.2-0.3-0.4-0.4C152.2,138.8,152.3,139,152.4,139.1z"/>
	<path class="st8" d="M107,134L107,134c0.6-0.3,1.1-0.6,1.6,0l-1.1,0.1L107,134z"/>
	<path class="st9" d="M134.8,140c-2.6,0.1-4.8-1-7.2-1.8c0.9-3.5,2-7,3.3-10.4c2,0.1,3.5,1.8,5.6,1.4l1,0.1l0.6,0.9
		C136.6,133.3,135.8,136.7,134.8,140z"/>
	<path class="st10" d="M130.9,127.8c-1.3,3.4-2.4,6.8-3.3,10.4c-3.1,1.7-5.7,1.2-6.9-1.4c1.6-3.4,2.7-7,3.4-10.7l0,0l0.9-0.3
		c0.1,0.2,0.1,0.4,0.2,0.6c-0.1,1,0.6,1.7,1,2.5s0.9,1,1.6,0.5s2.4-0.2,1.7-2h1.5C131,127.5,131,127.6,130.9,127.8z"/>
	<path class="st5" d="M129.4,127.3c0.8,1.8-1,1.4-1.7,2s-1.3,0.2-1.6-0.5s-1.1-1.5-1-2.5C126.6,126.1,128.1,126.5,129.4,127.3z"/>
	<path class="st6" d="M130.9,127.8c0-0.2,0-0.3,0-0.5c2,0.3,4.1,0.1,5.6,1.8C134.5,129.5,132.9,127.8,130.9,127.8z"/>
	<path class="st4" d="M125,125.6l-0.9,0.3c-0.5-0.3-1.2-0.1-1.5-0.7C123.4,125.2,124.3,124.7,125,125.6z"/>
</g>
</svg>
